<svg xmlns:xlink="http://www.w3.org/1999/xlink" xmlns="http://www.w3.org/2000/svg" viewBox="0 0 399.6666666666667 106.2" preserveAspectRatio="xMidYMid meet" class="css-116ckqy" id="hffffbga" width="399.6666666666667"  height="106.2" ><defs id="SvgjsDefs1957"><linearGradient id="SvgjsLinearGradient1964"><stop id="SvgjsStop1965" stop-color="#7f00ff" offset="0"></stop><stop id="SvgjsStop1966" stop-color="#e100ff" offset="1"></stop></linearGradient><linearGradient id="SvgjsLinearGradient1967"><stop id="SvgjsStop1968" stop-color="#7f00ff" offset="0"></stop><stop id="SvgjsStop1969" stop-color="#e100ff" offset="1"></stop></linearGradient></defs><g id="SvgjsG1958" featurekey="symbolContainer" transform="matrix(0.9,0,0,0.9,0,0)" fill="#111111"><rect xmlns="http://www.w3.org/2000/svg" width="98" height="118" rx="10" ry="10" fill="#111111"></rect></g><g id="SvgjsG1959" featurekey="monogramFeature-0" transform="matrix(1.8520494477888847,0,0,1.8520494477888847,9.445809546965448,-18.394047084846505)" fill="#FFFFFF"><path d="M31.479 17.499000000000002 c0.67626 -0.43412 3.7459 16.766 2.8561 16.6 c-3.8573 -0.034336 -7.6926 -0.19447 -11.497 -0.47602 c0.39979 2.9008 0.85674 5.7881 1.3697 8.6556 c0.9648 5.3554 2.1164 10.657 3.4957 15.781 c0.3839 0.80208 -17.009 2.461 -16.778 1.4783 c0.4214 -5.8371 1.118 -11.538 2.0046 -17.185 c0.50719 -3.1982 1.083 -6.3744 1.7224 -9.5316 c-3.652 -0.44239 -7.2708 -0.99342 -10.849 -1.6576 c-1.0843 -0.22184 -1.0582 -5.3357 -0.0088476 -5.7119 c9.5856 -1.8698 18.858 -4.5488 27.683 -7.953 z" fill="#FFFFFF"></path></g><g id="SvgjsG1960" featurekey="nameFeature-0" transform="matrix(1.5722070294850232,0,0,1.5722070294850232,105.48468799870875,12.13398794882091)" fill="#111111"><path d="M20.322 12 c1.2128 0 2.196 0.98328 2.196 2.196 s-0.98328 2.196 -2.196 2.196 l-11.224 0 l4.5136 4.5136 c0.85756 0.85756 0.85756 2.248 0 3.1056 c-0.4288 0.4288 -0.99096 0.64316 -1.5529 0.64316 c-0.5622 0 -1.1241 -0.21438 -1.5529 -0.64316 l-8.2628 -8.2628 c-0.62808 -0.62808 -0.81584 -1.5726 -0.47576 -2.3932 s1.1408 -1.3555 2.0289 -1.3555 l16.525 0 z M5.3492 20.906 l8.2628 8.2624 c0.41176 0.41176 0.64316 0.9704 0.64316 1.5529 l0 7.0824 c0 1.2128 -0.98328 2.196 -2.196 2.196 s-2.196 -0.98328 -2.196 -2.196 l0 -6.1726 l-7.6196 -7.6196 c-0.85756 -0.85756 -0.85756 -2.248 0 -3.1056 c0.85812 -0.85784 2.2485 -0.85756 3.1058 0 z M36.846000000000004 19.412 c1.2128 0 2.196 0.98328 2.196 2.196 l0 16.196 c0 1.2128 -0.98328 2.196 -2.196 2.196 c-1.1071 0 -2.0201 -0.81968 -2.1716 -1.885 c-1.677 1.1856 -3.721 1.885 -5.9264 1.885 c-5.6764 0 -10.294 -4.6176 -10.294 -10.294 s4.6176 -10.294 10.294 -10.294 c2.2054 0 4.2492 0.69944 5.9264 1.885 c0.15152 -1.0654 1.0645 -1.885 2.1716 -1.885 z M28.747999999999998 35.608 c3.2543 0 5.902 -2.6476 5.902 -5.902 s-2.6476 -5.902 -5.902 -5.902 s-5.902 2.6476 -5.902 5.902 s2.6476 5.902 5.902 5.902 z M51.446999999999996 35.608 c1.2128 0 2.1961 0.98332 2.1961 2.1961 s-0.98328 2.196 -2.196 2.196 c-5.7668 0 -10.459 -4.692 -10.459 -10.459 l0 -15.345 c0 -1.2128 0.98328 -2.196 2.196 -2.196 s2.196 0.98328 2.196 2.196 l0 15.345 c0 3.3452 2.7215 6.0668 6.0668 6.0668 z M65.869 19.467 c5.6612 0 10.267 4.6056 10.267 10.267 l0 8.0706 c0 1.2128 -0.98328 2.196 -2.196 2.196 s-2.196 -0.98328 -2.196 -2.196 l0 -8.0706 c0 -3.2392 -2.6353 -5.8744 -5.8744 -5.8744 s-5.8744 2.6353 -5.8744 5.8744 l0 8.0706 c0 1.2128 -0.98328 2.196 -2.196 2.196 s-2.196 -0.98328 -2.196 -2.196 l0 -23.608 c0 -1.2128 0.98328 -2.196 2.196 -2.196 s2.196 0.98328 2.196 2.196 l0 7.1246 c1.6657 -1.1667 3.6908 -1.8541 5.8744 -1.8541 z M96.448 19.412 c1.2128 0 2.196 0.98328 2.196 2.196 l0 16.196 c0 1.2128 -0.98328 2.196 -2.196 2.196 c-1.1071 0 -2.0201 -0.81968 -2.1716 -1.885 c-1.677 1.1856 -3.721 1.885 -5.9264 1.885 c-5.6764 0 -10.294 -4.6176 -10.294 -10.294 s4.6176 -10.294 10.294 -10.294 c2.2054 0 4.2492 0.69944 5.9264 1.885 c0.15152 -1.0654 1.0645 -1.885 2.1716 -1.885 z M88.35 35.608 c3.2543 0 5.902 -2.6476 5.902 -5.902 s-2.6476 -5.902 -5.902 -5.902 s-5.902 2.6476 -5.902 5.902 s2.6476 5.902 5.902 5.902 z M132.319 37.0782 c0.33848 0.96712 -0.036836 2.0399 -0.90456 2.5848 c-0.86744 0.54516 -1.9965 0.41776 -2.7212 -0.30664 l-8.2628 -8.2628 c-0.85784 -0.85756 -0.85784 -2.248 0 -3.1056 c0.85756 -0.85756 2.248 -0.85756 3.1056 0 l1.4582 1.4582 l-3.0108 -8.6028 l-6.19 17.686 c-0.3168 0.90476 -1.1656 1.4711 -2.0728 1.4711 c-0.24074 0.00027344 -0.48532 -0.039805 -0.72552 -0.12379 c-1.1447 -0.40052 -1.7478 -1.6534 -1.3473 -2.798 l8.2628 -23.608 c0.30828 -0.88092 1.1395 -1.4706 2.0728 -1.4706 s1.7645 0.58964 2.0728 1.4706 z M146.32099999999997 27.509999999999998 c3.4434 0 6.2452 2.8016 6.2452 6.2452 s-2.8016 6.2452 -6.2452 6.2452 l-8.098 0 c-1.2128 0 -2.196 -0.98328 -2.196 -2.196 s0.98328 -2.196 2.196 -2.196 l8.098 0 c1.0217 0 1.8529 -0.8312 1.8529 -1.8529 s-0.8312 -1.8529 -1.8529 -1.8529 l-8.098 0 c-3.4434 0 -6.2452 -2.8016 -6.2452 -6.2452 s2.8016 -6.2452 6.2452 -6.2452 l8.098 0 c1.2128 0 2.196 0.98328 2.196 2.196 s-0.98328 2.196 -2.196 2.196 l-8.098 0 c-1.0217 0 -1.8529 0.8312 -1.8529 1.8529 s0.8312 1.8529 1.8529 1.8529 l8.098 0 z M164.40599999999998 19.412 c1.2128 0 2.196 0.98328 2.196 2.196 s-0.98328 2.196 -2.196 2.196 c-3.2543 0 -5.902 2.6476 -5.902 5.902 l0 8.098 c0 1.2128 -0.98328 2.196 -2.196 2.196 s-2.196 -0.98328 -2.196 -2.196 l0 -16.196 c0 -1.2128 0.98328 -2.196 2.196 -2.196 c1.1071 0 2.0201 0.81996 2.1716 1.885 c1.677 -1.1856 3.721 -1.885 5.9264 -1.885 z M176.81999999999996 19.412 c5.6764 0 10.294 4.6176 10.294 10.294 c0 1.2128 -0.98328 2.196 -2.196 2.196 l-13.576 0 c0.87292 2.17 2.9995 3.7059 5.4784 3.7059 c1.5765 0 3.0586 -0.6138 4.1732 -1.7286 c0.85784 -0.85756 2.248 -0.85732 3.1058 0 c0.85784 0.85784 0.85756 2.2482 0 3.1058 c-1.9446 1.9443 -4.5296 3.0149 -7.2792 3.0149 c-5.6764 0 -10.294 -4.6176 -10.294 -10.294 s4.6176 -10.294 10.294 -10.294 z M171.34159999999997 27.509999999999998 l10.957 0 c-0.87292 -2.17 -2.9995 -3.7059 -5.4784 -3.7059 s-4.6056 1.5359 -5.4784 3.7059 z" fill="#111111"></path></g></svg>